{"title":"Botched 2007 DVDRip Xvid BigPerm LKRG","uid":5886036,"size":991812556,"categoryP":"video","categoryS":"movies","magnet":"?xt=urn:btih:06cd2c7ec352080db2582cb1396b2cea86ec30c0&amp;dn=+Botched+2007+DVDRip+Xvid+BigPerm+LKRG&amp;tr=udp%3A%2F%2Ftracker.openbittorrent.com%3A80&amp;tr=udp%3A%2F%2Fopen.demonii.com%3A1337&amp;tr=udp%3A%2F%2Ftracker.coppersurfer.tk%3A6969&amp;tr=udp%3A%2F%2Fexodus.desync.com%3A6969","seeders":2,"leechers":0,"uploader":"neon","files":3,"time":1287055456,"description":"During a heist in Russia, a professional thief finds himself dealing with serial killers, insane hostages, double-crossing psycho Russian hardmen and the real possibility of a horrible death.\n\nDavid Heap...................Auctioneer\nAlan Smyth...................Hugo\nStephen Dorff................Ritchie\nSean Pertwee.................Mr. Groznyi\nIgor Chistol.................Thug 1\nGreg Jeloudov................Thug 2\nJamie Foreman................Peter\nRussell Smith................Yuri\nBronagh Gallagher............Sonya\nNorma Sheahan................Helena\nGene Rooney..................Katerina\nJaime Murray.................Anna\nHugh O'Conor.................Dmitry\nGeoff Bell...................Boris\nZak Maguire..................Alex\n\n &lt;a href=&quot;\nhttp://www.imdb.com/title/tt0790590/&quot; rel=&quot;nofollow&quot; target=&quot;_NEW&quot;&gt;\nhttp://www.imdb.com/title/tt0790590/&lt;/a&gt;\n &lt;a href=&quot;\nhttp://www.youtube.com/watch?v=9KmNJZ64N4Q&amp;feature=player_embedded&quot; rel=&quot;nofollow&quot; target=&quot;_NEW&quot;&gt;\nhttp://www.youtube.com/watch?v=9KmNJZ64N4Q&amp;feature=player_embedded&lt;/a&gt;\n\nGeneral\nComplete name : Botched 2007 DVDRip Xvid BigPerm LKRG\\Botched_LKRG.avi\nFormat : AVI\nFormat/Info : Audio Video Interleave\nFile size : 946 MiB\nDuration : 1h 34mn\nOverall bit rate : 1 398 Kbps\n\nVideo\nID : 0\nFormat : MPEG-4 Visual\nFormat profile : Advanced Simple@L5\nFormat settings, BVOP : Yes\nFormat settings, QPel : No\nFormat settings, GMC : No warppoints\nFormat settings, Matrix : Default (H.263)\nCodec ID : XVID\nCodec ID/Hint : XviD\nDuration : 1h 34mn\nBit rate : 1 009 Kbps\nWidth : 720 pixels\nHeight : 404 pixels\nDisplay aspect ratio : 16:9\nFrame rate : 23.976 fps\nResolution : 8 bits\nColorimetry : 4:2:0\nScan type : Progressive\nBits/(Pixel*Frame) : 0.145\nStream size : 683 MiB (72%)\nWriting library : XviD 1.2.1 (UTC 2008-12-04)\n\nAudio\nID : 1\nFormat : AC-3\nFormat/Info : Audio Coding 3\nCodec ID : 2000\nDuration : 1h 34mn\nBit rate mode : Constant\nBit rate : 384 Kbps\nChannel(s) : 6 channels\nChannel positions : Front: L C R, Side: L R, LFE\nSampling rate : 48.0 KHz\nResolution : 16 bits\nVideo delay : 42ms\nStream size : 260 MiB (27%)\nAlignment : Split accross interleaves\nInterleave, duration : 500 ms (11.99 video frames)\nInterleave, preload duration : 500 ms\nLanguage : English\n\nthanks to BigPerm :)\n","torrent":{"xt":"urn:btih:06cd2c7ec352080db2582cb1396b2cea86ec30c0","amp;dn":"+Botched+2007+DVDRip+Xvid+BigPerm+LKRG","amp;tr":["udp%3A%2F%2Ftracker.openbittorrent.com%3A80","udp%3A%2F%2Fopen.demonii.com%3A1337","udp%3A%2F%2Ftracker.coppersurfer.tk%3A6969","udp%3A%2F%2Fexodus.desync.com%3A6969"],"infoHash":"06cd2c7ec352080db2582cb1396b2cea86ec30c0","infoHashBuffer":{"type":"Buffer","data":[6,205,44,126,195,82,8,13,178,88,44,177,57,107,44,234,134,236,48,192]},"announce":[],"urlList":[]}}